<svg width="16" height="14" viewBox="0 0 16 14" fill="none" xmlns="http://www.w3.org/2000/svg">
<path d="M4.24174 1.69215C4.24174 2.6267 3.4317 3.3843 2.43246 3.3843C1.43323 3.3843 0.623184 2.6267 0.623184 1.69215C0.623184 0.757601 1.43323 0 2.43246 0C3.4317 0 4.24174 0.757601 4.24174 1.69215Z" fill="white"/>
<path d="M0.870607 4.6281H3.96339V14H0.870607V4.6281Z" fill="white"/>
<path d="M8.94277 4.6281H5.84999V14H8.94277C8.94277 14 8.94277 11.0496 8.94277 9.20486C8.94277 8.09762 9.32084 6.98554 10.8294 6.98554C12.5342 6.98554 12.5239 8.43453 12.516 9.55709C12.5056 11.0244 12.5304 12.5219 12.5304 14H15.6232V9.05372C15.597 5.89538 14.774 4.44008 12.0665 4.44008C10.4586 4.44008 9.46189 5.17006 8.94277 5.83049V4.6281Z" fill="white"/>
</svg>
